<svg width="1906" height="1207" viewBox="0 0 1906 1207" fill="none" xmlns="http://www.w3.org/2000/svg">
<rect y="114" width="1440" height="578" fill="#9669E2"/>
<path d="M1517.76 881.744C1306.17 945.552 517.893 1273.08 454.086 1061.5C390.279 849.917 1075.11 179.341 1286.69 115.533C1498.27 51.7261 1721.52 171.522 1785.33 383.106C1849.14 594.689 1729.34 817.937 1517.76 881.744Z" fill="url(#paint0_linear_668_391)"/>
<path d="M482.6 146.356C482.656 145.881 483.344 145.881 483.4 146.356L483.872 150.333C484.482 155.469 488.531 159.518 493.667 160.128L497.644 160.6C498.119 160.656 498.119 161.344 497.644 161.4L493.667 161.872C488.531 162.482 484.482 166.531 483.872 171.667L483.4 175.644C483.344 176.119 482.656 176.119 482.6 175.644L482.128 171.667C481.518 166.531 477.469 162.482 472.333 161.872L468.356 161.4C467.881 161.344 467.881 160.656 468.356 160.6L472.333 160.128C477.469 159.518 481.518 155.469 482.128 150.333L482.6 146.356Z" fill="#FFFDF2"/>
<path d="M116.895 344.975C117.501 341.23 114.956 337.702 111.21 337.096C107.465 336.49 103.937 339.035 103.332 342.781C102.726 346.526 105.271 350.054 109.016 350.66C112.761 351.266 116.289 348.721 116.895 344.975Z" stroke="#F0ECEA" stroke-width="1.93" stroke-miterlimit="10"/>
<path d="M268.155 264.033C269.524 255.597 263.795 247.648 255.359 246.279C246.923 244.909 238.974 250.638 237.605 259.074C236.235 267.511 241.964 275.46 250.4 276.829C258.836 278.199 266.785 272.47 268.155 264.033Z" stroke="#F0ECEA" stroke-width="2.87" stroke-miterlimit="10"/>
<path d="M65.3591 360.658C68.2045 360.658 70.5112 358.351 70.5112 355.506C70.5112 352.66 68.2045 350.354 65.3591 350.354C62.5137 350.354 60.207 352.66 60.207 355.506C60.207 358.351 62.5137 360.658 65.3591 360.658Z" fill="#F0ECEA"/>
<path d="M24.1825 386.419C24.1825 388.129 22.8011 389.511 21.0912 389.511C19.3814 389.511 18 388.129 18 386.419C18 384.709 19.3814 383.328 21.0912 383.328C22.8011 383.328 24.1825 384.709 24.1825 386.419Z" fill="#F0ECEA"/>
<path d="M217.208 266.469C219.105 266.469 220.643 264.931 220.643 263.034C220.643 261.137 219.105 259.6 217.208 259.6C215.311 259.6 213.773 261.137 213.773 263.034C213.773 264.931 215.311 266.469 217.208 266.469Z" fill="#F0ECEA"/>
<path d="M1044.32 274.265C1051.38 274.265 1057.11 268.539 1057.11 261.476C1057.11 254.413 1051.38 248.688 1044.32 248.688C1037.26 248.688 1031.53 254.413 1031.53 261.476C1031.53 268.539 1037.26 274.265 1044.32 274.265Z" stroke="#F0ECEA" stroke-width="2.87" stroke-miterlimit="10"/>
<path d="M794.394 174.904C797.926 174.904 800.789 172.041 800.789 168.51C800.789 164.978 797.926 162.115 794.394 162.115C790.863 162.115 788 164.978 788 168.51C788 172.041 790.863 174.904 794.394 174.904Z" fill="#F0ECEA"/>
<path d="M1132.14 250.393C1134.49 250.393 1136.4 248.484 1136.4 246.13C1136.4 243.776 1134.49 241.867 1132.14 241.867C1129.78 241.867 1127.88 243.776 1127.88 246.13C1127.88 248.484 1129.78 250.393 1132.14 250.393Z" fill="#F0ECEA"/>
<path d="M986.49 154.016C986.49 156.138 984.775 157.853 982.653 157.853C980.531 157.853 978.816 156.138 978.816 154.016C978.816 151.894 980.531 150.18 982.653 150.18C984.775 150.18 986.49 151.894 986.49 154.016Z" fill="#F0ECEA"/>
<path d="M833.807 217.106C833.807 219.228 831.902 220.943 829.544 220.943C827.186 220.943 825.281 219.228 825.281 217.106C825.281 214.984 827.186 213.27 829.544 213.27C831.902 213.27 833.807 214.984 833.807 217.106Z" fill="#F0ECEA"/>
<path d="M1111.7 201.049C1111.76 200.577 1112.44 200.577 1112.5 201.049L1112.97 205.005C1113.57 210.114 1117.6 214.142 1122.71 214.748L1126.67 215.217C1127.14 215.273 1127.14 215.957 1126.67 216.013L1122.71 216.483C1117.6 217.089 1113.57 221.117 1112.97 226.225L1112.5 230.182C1112.44 230.653 1111.76 230.653 1111.7 230.182L1111.23 226.225C1110.63 221.117 1106.6 217.089 1101.49 216.483L1097.53 216.013C1097.06 215.957 1097.06 215.273 1097.53 215.217L1101.49 214.748C1106.6 214.142 1110.63 210.114 1111.23 205.005L1111.7 201.049Z" fill="#FFFDF2"/>
<path d="M1335.67 265.349C1335.67 267.707 1333.96 269.612 1331.84 269.612C1329.71 269.612 1328 267.707 1328 265.349C1328 262.991 1329.71 261.086 1331.84 261.086C1333.96 261.086 1335.67 262.991 1335.67 265.349Z" fill="#F0ECEA"/>
<path d="M1385.47 154.059C1387.42 154.059 1389 152.479 1389 150.53C1389 148.58 1387.42 147 1385.47 147C1383.52 147 1381.94 148.58 1381.94 150.53C1381.94 152.479 1383.52 154.059 1385.47 154.059Z" fill="#F0ECEA"/>
<defs>
<linearGradient id="paint0_linear_668_391" x1="1785.33" y1="383.106" x2="1019.12" y2="614.172" gradientUnits="userSpaceOnUse">
<stop stop-color="#3E1681"/>
<stop offset="1" stop-color="#9669E2" stop-opacity="0"/>
</linearGradient>
</defs>
</svg>
