<svg width="17" height="35" viewBox="0 0 17 35" fill="none" xmlns="http://www.w3.org/2000/svg">
<path d="M2.31818 7.95455V26.25C2.31818 27.9377 2.96948 29.5564 4.12879 30.7498C5.28811 31.9432 6.86048 32.6136 8.5 32.6136C10.1395 32.6136 11.7119 31.9432 12.8712 30.7498C14.0305 29.5564 14.6818 27.9377 14.6818 26.25V6.36364C14.6818 5.3088 14.2748 4.29716 13.5502 3.55128C12.8256 2.8054 11.8429 2.38636 10.8182 2.38636C9.79348 2.38636 8.81075 2.8054 8.08618 3.55128C7.36161 4.29716 6.95455 5.3088 6.95455 6.36364V23.0682C6.95455 23.4901 7.11737 23.8948 7.4072 24.1931C7.69703 24.4915 8.09012 24.6591 8.5 24.6591C8.90988 24.6591 9.30297 24.4915 9.5928 24.1931C9.88263 23.8948 10.0455 23.4901 10.0455 23.0682V7.95455H12.3636V23.0682C12.3636 24.123 11.9566 25.1347 11.232 25.8805C10.5074 26.6264 9.5247 27.0455 8.5 27.0455C7.4753 27.0455 6.49257 26.6264 5.768 25.8805C5.04342 25.1347 4.63636 24.123 4.63636 23.0682V6.36364C4.63636 4.6759 5.28766 3.05728 6.44698 1.86387C7.60629 0.670453 9.17866 0 10.8182 0C12.4577 0 14.0301 0.670453 15.1894 1.86387C16.3487 3.05728 17 4.6759 17 6.36364V26.25C17 28.5706 16.1045 30.7962 14.5104 32.4372C12.9163 34.0781 10.7543 35 8.5 35C6.24566 35 4.08365 34.0781 2.48959 32.4372C0.895533 30.7962 0 28.5706 0 26.25V7.95455H2.31818Z" fill="black"/>
</svg>
