<svg width="44" height="44" viewBox="0 0 44 44" fill="none" xmlns="http://www.w3.org/2000/svg">
<g id="Group 6">
<rect id="Button" width="44" height="44" rx="22" fill="#FFDE00"/>
<path id="Vector" fill-rule="evenodd" clip-rule="evenodd" d="M22 13C16.4771 13 12 16.4429 12 20.6898C12 23.4355 13.8717 25.8448 16.6873 27.2052C16.5341 27.7204 15.703 30.5196 15.6699 30.7396C15.6699 30.7396 15.65 30.9049 15.7597 30.9679C15.8694 31.0308 15.9985 30.9819 15.9985 30.9819C16.3131 30.9391 19.6468 28.6552 20.2237 28.2586C20.8002 28.3382 21.3938 28.3796 22 28.3796C27.5229 28.3796 32 24.9368 32 20.6898C32 16.4429 27.5229 13 22 13Z" fill="black"/>
</g>
</svg>
