<svg width="17" height="16" viewBox="0 0 17 16" fill="none" xmlns="http://www.w3.org/2000/svg">
<path d="M8.80859 14.4C5.28059 14.4 2.40859 11.528 2.40859 8C2.40859 4.472 5.28059 1.6 8.80859 1.6C12.3366 1.6 15.2086 4.472 15.2086 8C15.2086 11.528 12.3366 14.4 8.80859 14.4ZM8.80859 0C7.75802 0 6.71773 0.206926 5.74713 0.608964C4.77652 1.011 3.89461 1.60028 3.15174 2.34315C1.65145 3.84344 0.808594 5.87827 0.808594 8C0.808594 10.1217 1.65145 12.1566 3.15174 13.6569C3.89461 14.3997 4.77652 14.989 5.74713 15.391C6.71773 15.7931 7.75802 16 8.80859 16C10.9303 16 12.9652 15.1571 14.4654 13.6569C15.9657 12.1566 16.8086 10.1217 16.8086 8C16.8086 6.94943 16.6017 5.90914 16.1996 4.93853C15.7976 3.96793 15.2083 3.08601 14.4654 2.34315C13.7226 1.60028 12.8407 1.011 11.8701 0.608964C10.8995 0.206926 9.85917 0 8.80859 0ZM9.60859 4H8.00859V7.2H4.80859V8.8H8.00859V12H9.60859V8.8H12.8086V7.2H9.60859V4Z" fill="black"/>
</svg>
