<svg width="140" height="137" viewBox="0 0 140 137" fill="none" xmlns="http://www.w3.org/2000/svg">
<ellipse cx="61.5" cy="60.5" rx="61.5" ry="60.5" fill="#F4F2FB"/>
<path d="M90.6062 69.9591L78.6128 82.9181L70.2175 73.8468L73.8155 69.9591L78.6128 75.1427L87.0082 66.0714L90.6062 69.9591ZM65.636 77.7345H48.6294V36.2656H65.4201V49.2247H77.4135V59.8251C78.2051 59.6955 78.9966 59.5919 79.8122 59.5919C80.6277 59.5919 81.4193 59.6955 82.2109 59.8251V46.6329L67.8188 31.082H48.6294C45.9669 31.082 43.832 33.4147 43.832 36.2656V77.7345C43.832 80.6114 45.9669 82.9181 48.6294 82.9181H67.3631C66.5235 81.3371 65.9238 79.6006 65.636 77.7345Z" fill="#454545"/>
<g filter="url(#filter0_d_432_353)">
<circle cx="113.5" cy="110.5" r="20.5" fill="white"/>
</g>
<path d="M112.952 120.35C110.027 120.35 108.052 119.275 106.752 117.775L108.502 115.45C109.602 116.525 110.927 117.375 112.602 117.375C114.502 117.375 115.777 116.425 115.777 114.775C115.777 112.95 114.702 111.825 110.677 111.825V109.175C114.077 109.175 115.177 108.025 115.177 106.375C115.177 104.925 114.277 104.05 112.702 104.05C111.377 104.05 110.302 104.675 109.202 105.7L107.327 103.425C108.927 102.05 110.702 101.175 112.852 101.175C116.427 101.175 118.852 102.925 118.852 106.1C118.852 108.075 117.752 109.55 115.777 110.3V110.425C117.877 111.025 119.477 112.55 119.477 115C119.477 118.4 116.502 120.35 112.952 120.35Z" fill="#454545"/>
<defs>
<filter id="filter0_d_432_353" x="87" y="84" width="53" height="53" filterUnits="userSpaceOnUse" color-interpolation-filters="sRGB">
<feFlood flood-opacity="0" result="BackgroundImageFix"/>
<feColorMatrix in="SourceAlpha" type="matrix" values="0 0 0 0 0 0 0 0 0 0 0 0 0 0 0 0 0 0 127 0" result="hardAlpha"/>
<feOffset/>
<feGaussianBlur stdDeviation="3"/>
<feComposite in2="hardAlpha" operator="out"/>
<feColorMatrix type="matrix" values="0 0 0 0 0 0 0 0 0 0 0 0 0 0 0 0 0 0 0.25 0"/>
<feBlend mode="normal" in2="BackgroundImageFix" result="effect1_dropShadow_432_353"/>
<feBlend mode="normal" in="SourceGraphic" in2="effect1_dropShadow_432_353" result="shape"/>
</filter>
</defs>
</svg>
