<svg width="41" height="46" viewBox="0 0 41 46" fill="none" xmlns="http://www.w3.org/2000/svg">
<path d="M29 4L29 42" stroke="#AD88EB" stroke-width="4" stroke-linecap="round"/>
<path d="M6.25613 23.23L6.0327 23L6.25613 22.747C15.8861 11.822 22.254 4.6 28.7112 4.6C33.1798 4.6 36.5313 8.05 36.5313 12.65C36.5313 16.192 35.6335 18.3785 31.795 20.3131L26.8325 23L31.795 25.472C35.5262 27.514 36.5313 29.808 36.5313 33.35C36.5313 37.95 33.1798 41.4 28.7112 41.4C22.254 41.4 15.8861 34.178 6.25613 23.23ZM41 33.35C41 29.348 39.1902 25.507 36.3526 23C39.1902 20.493 41 16.652 41 12.65C41 5.566 35.6153 0 28.7112 0C20.2877 0 13.3836 7.82 2.94932 19.665L0 23L2.94932 26.335C13.3836 38.18 20.2877 46 28.7112 46C35.6153 46 41 40.434 41 33.35Z" fill="#AD88EB"/>
</svg>
