<svg width="22" height="23" viewBox="0 0 18 19" fill="none" xmlns="http://www.w3.org/2000/svg">
<g clip-path="url(#clip0_643_369)">
<path d="M17.9999 9.71009C17.9999 8.93122 17.9386 8.36285 17.806 7.77344H9.18359V11.2889H14.2448C14.1428 12.1625 13.5918 13.4782 12.3672 14.3623L12.3501 14.48L15.0763 16.6585L15.2652 16.6779C16.9999 15.0254 17.9999 12.594 17.9999 9.71009Z" fill="#4285F4"/>
<path d="M9.18457 18.9724C11.6641 18.9724 13.7457 18.1303 15.2662 16.6778L12.3682 14.3622C11.5927 14.9201 10.5519 15.3095 9.18457 15.3095C6.75602 15.3095 4.69481 13.6571 3.96005 11.373L3.85235 11.3825L1.01754 13.6454L0.980469 13.7517C2.49066 16.8462 5.59271 18.9724 9.18457 18.9724Z" fill="#34A853"/>
<path d="M3.95914 11.3731C3.76527 10.7837 3.65307 10.1521 3.65307 9.49955C3.65307 8.84693 3.76527 8.21543 3.94894 7.62602L3.94381 7.50049L1.07348 5.20117L0.979568 5.24725C0.357147 6.53136 0 7.97337 0 9.49955C0 11.0257 0.357147 12.4677 0.979568 13.7518L3.95914 11.3731Z" fill="#FBBC05"/>
<path d="M9.18457 3.69016C10.909 3.69016 12.0723 4.45851 12.7356 5.1006L15.3274 2.49029C13.7356 0.964108 11.6641 0.0273438 9.18457 0.0273438C5.59271 0.0273438 2.49066 2.15346 0.980469 5.2479L3.94984 7.62667C4.69481 5.34267 6.75602 3.69016 9.18457 3.69016Z" fill="#EB4335"/>
</g>
<defs>
<clipPath id="clip0_643_369">
<rect width="18" height="19" fill="white"/>
</clipPath>
</defs>
</svg>
