<svg width="185" height="43" viewBox="0 0 185 43" fill="none" xmlns="http://www.w3.org/2000/svg">
<path d="M52.45 34V9.5H64.98C68.2 9.5 70.6033 10.095 72.19 11.285C73.7767 12.4517 74.57 13.9917 74.57 15.905C74.57 17.165 74.2317 18.2733 73.555 19.23C72.9017 20.1633 71.9683 20.91 70.755 21.47C69.565 22.0067 68.1417 22.275 66.485 22.275L67.185 20.595C68.9117 20.595 70.4167 20.8633 71.7 21.4C72.9833 21.9133 73.975 22.6717 74.675 23.675C75.3983 24.655 75.76 25.8567 75.76 27.28C75.76 29.4033 74.8967 31.06 73.17 32.25C71.4667 33.4167 68.97 34 65.68 34H52.45ZM59.31 28.995H65.12C66.31 28.995 67.2083 28.7967 67.815 28.4C68.445 27.98 68.76 27.35 68.76 26.51C68.76 25.67 68.445 25.0517 67.815 24.655C67.2083 24.235 66.31 24.025 65.12 24.025H58.82V19.23H64.07C65.2367 19.23 66.1117 19.0317 66.695 18.635C67.2783 18.2383 67.57 17.6433 67.57 16.85C67.57 16.0567 67.2783 15.4733 66.695 15.1C66.1117 14.7033 65.2367 14.505 64.07 14.505H59.31V28.995ZM79.0344 34V15.03H85.3694V20.56L84.4244 18.985C84.9844 17.5617 85.8944 16.5 87.1544 15.8C88.4144 15.0767 89.9427 14.715 91.7394 14.715V20.7C91.4361 20.6533 91.1677 20.63 90.9344 20.63C90.7244 20.6067 90.4911 20.595 90.2344 20.595C88.8811 20.595 87.7844 20.9683 86.9444 21.715C86.1044 22.4383 85.6844 23.6283 85.6844 25.285V34H79.0344ZM94.4836 34V15.03H101.134V34H94.4836ZM97.8086 12.93C96.5953 12.93 95.6153 12.5917 94.8686 11.915C94.122 11.2383 93.7486 10.3983 93.7486 9.395C93.7486 8.39167 94.122 7.55167 94.8686 6.875C95.6153 6.19833 96.5953 5.86 97.8086 5.86C99.022 5.86 100.002 6.18667 100.749 6.84C101.495 7.47 101.869 8.28667 101.869 9.29C101.869 10.34 101.495 11.215 100.749 11.915C100.025 12.5917 99.0453 12.93 97.8086 12.93ZM113.715 34.315C111.989 34.315 110.414 33.9183 108.99 33.125C107.59 32.3083 106.47 31.1767 105.63 29.73C104.79 28.26 104.37 26.51 104.37 24.48C104.37 22.4733 104.79 20.7467 105.63 19.3C106.47 17.83 107.59 16.6983 108.99 15.905C110.414 15.1117 111.989 14.715 113.715 14.715C115.349 14.715 116.725 15.065 117.845 15.765C118.989 16.465 119.852 17.5383 120.435 18.985C121.019 20.4317 121.31 22.2633 121.31 24.48C121.31 26.7433 121.03 28.5983 120.47 30.045C119.91 31.4917 119.07 32.565 117.95 33.265C116.83 33.965 115.419 34.315 113.715 34.315ZM115.115 29.03C115.862 29.03 116.527 28.855 117.11 28.505C117.717 28.155 118.195 27.6417 118.545 26.965C118.895 26.265 119.07 25.4367 119.07 24.48C119.07 23.5233 118.895 22.7183 118.545 22.065C118.195 21.3883 117.717 20.875 117.11 20.525C116.527 20.175 115.862 20 115.115 20C114.345 20 113.657 20.175 113.05 20.525C112.467 20.875 112 21.3883 111.65 22.065C111.3 22.7183 111.125 23.5233 111.125 24.48C111.125 25.4367 111.3 26.265 111.65 26.965C112 27.6417 112.467 28.155 113.05 28.505C113.657 28.855 114.345 29.03 115.115 29.03ZM119.28 34V30.745L119.315 24.48L118.965 18.215V8.03H125.615V34H119.28ZM139.169 41.105C137.349 41.105 135.61 40.895 133.954 40.475C132.32 40.055 130.92 39.4367 129.754 38.62L132.169 33.965C132.962 34.595 133.942 35.085 135.109 35.435C136.299 35.8083 137.454 35.995 138.574 35.995C140.37 35.995 141.665 35.5983 142.459 34.805C143.252 34.035 143.649 32.9033 143.649 31.41V29.17L143.999 23.85L143.964 18.495V15.03H150.299V30.535C150.299 34.1283 149.33 36.7883 147.394 38.515C145.457 40.2417 142.715 41.105 139.169 41.105ZM138.014 33.02C136.334 33.02 134.782 32.6467 133.359 31.9C131.959 31.13 130.827 30.0683 129.964 28.715C129.124 27.3383 128.704 25.7167 128.704 23.85C128.704 21.9833 129.124 20.3733 129.964 19.02C130.827 17.6433 131.959 16.5817 133.359 15.835C134.782 15.0883 136.334 14.715 138.014 14.715C139.624 14.715 141 15.0417 142.144 15.695C143.287 16.325 144.15 17.3167 144.734 18.67C145.34 20.0233 145.644 21.75 145.644 23.85C145.644 25.95 145.34 27.6767 144.734 29.03C144.15 30.3833 143.287 31.3867 142.144 32.04C141 32.6933 139.624 33.02 138.014 33.02ZM139.589 27.735C140.382 27.735 141.082 27.5717 141.689 27.245C142.319 26.9183 142.809 26.4633 143.159 25.88C143.532 25.2967 143.719 24.62 143.719 23.85C143.719 23.08 143.532 22.4033 143.159 21.82C142.809 21.2367 142.319 20.7933 141.689 20.49C141.082 20.1633 140.382 20 139.589 20C138.795 20 138.084 20.1633 137.454 20.49C136.824 20.7933 136.322 21.2367 135.949 21.82C135.599 22.4033 135.424 23.08 135.424 23.85C135.424 24.62 135.599 25.2967 135.949 25.88C136.322 26.4633 136.824 26.9183 137.454 27.245C138.084 27.5717 138.795 27.735 139.589 27.735ZM164.512 34.315C162.272 34.315 160.312 33.895 158.632 33.055C156.975 32.1917 155.68 31.025 154.747 29.555C153.837 28.0617 153.382 26.37 153.382 24.48C153.382 22.59 153.825 20.91 154.712 19.44C155.622 17.9467 156.87 16.7917 158.457 15.975C160.043 15.135 161.828 14.715 163.812 14.715C165.678 14.715 167.382 15.1 168.922 15.87C170.462 16.6167 171.687 17.725 172.597 19.195C173.507 20.665 173.962 22.45 173.962 24.55C173.962 24.7833 173.95 25.0517 173.927 25.355C173.903 25.6583 173.88 25.9383 173.857 26.195H158.842V22.695H170.322L167.802 23.675C167.825 22.8117 167.662 22.065 167.312 21.435C166.985 20.805 166.518 20.315 165.912 19.965C165.328 19.615 164.64 19.44 163.847 19.44C163.053 19.44 162.353 19.615 161.747 19.965C161.163 20.315 160.708 20.8167 160.382 21.47C160.055 22.1 159.892 22.8467 159.892 23.71V24.725C159.892 25.6583 160.078 26.4633 160.452 27.14C160.848 27.8167 161.408 28.3417 162.132 28.715C162.855 29.065 163.718 29.24 164.722 29.24C165.655 29.24 166.448 29.1117 167.102 28.855C167.778 28.575 168.443 28.155 169.097 27.595L172.597 31.235C171.687 32.2383 170.567 33.0083 169.237 33.545C167.907 34.0583 166.332 34.315 164.512 34.315ZM179.828 34.315C178.708 34.315 177.763 33.9417 176.993 33.195C176.223 32.4483 175.838 31.5033 175.838 30.36C175.838 29.17 176.223 28.225 176.993 27.525C177.763 26.8017 178.708 26.44 179.828 26.44C180.948 26.44 181.893 26.8017 182.663 27.525C183.433 28.225 183.818 29.17 183.818 30.36C183.818 31.5033 183.433 32.4483 182.663 33.195C181.893 33.9417 180.948 34.315 179.828 34.315Z" fill="#AD88EB"/>
<path d="M25 4L25 37" stroke="#AD88EB" stroke-width="4" stroke-linecap="round"/>
<path d="M5.49319 20.705L5.297 20.5L5.49319 20.2745C13.9488 10.537 19.5401 4.1 25.2098 4.1C29.1335 4.1 32.0763 7.175 32.0763 11.275C32.0763 14.432 31.288 16.3808 27.9175 18.1051L23.5602 20.5L27.9175 22.7033C31.1937 24.5234 32.0763 26.568 32.0763 29.725C32.0763 33.825 29.1335 36.9 25.2098 36.9C19.5401 36.9 13.9488 30.463 5.49319 20.705ZM36 29.725C36 26.158 34.4109 22.7345 31.9193 20.5C34.4109 18.2655 36 14.842 36 11.275C36 4.961 31.2719 0 25.2098 0C17.8136 0 11.7515 6.97 2.58964 17.5275L-9.83477e-07 20.5L2.58964 23.4725C11.7515 34.03 17.8136 41 25.2098 41C31.2719 41 36 36.039 36 29.725Z" fill="#AD88EB"/>
</svg>
