<svg width="38" height="38" viewBox="0 0 38 38" fill="none" xmlns="http://www.w3.org/2000/svg">
<path d="M19.19 32.2016L19 32.4087L18.791 32.2016C9.766 23.2763 3.8 17.3744 3.8 11.3896C3.8 7.24796 6.65 4.14169 10.45 4.14169C13.376 4.14169 16.226 6.21253 17.233 9.02888H20.767C21.774 6.21253 24.624 4.14169 27.55 4.14169C31.35 4.14169 34.2 7.24796 34.2 11.3896C34.2 17.3744 28.234 23.2763 19.19 32.2016ZM27.55 0C24.244 0 21.071 1.67738 19 4.30736C16.929 1.67738 13.756 0 10.45 0C4.598 0 0 4.99074 0 11.3896C0 19.1967 6.46 25.5956 16.245 35.2665L19 38L21.755 35.2665C31.54 25.5956 38 19.1967 38 11.3896C38 4.99074 33.402 0 27.55 0Z" fill="#454545"/>
</svg>
