<svg width="38" height="38" viewBox="0 0 38 38" fill="none" xmlns="http://www.w3.org/2000/svg">
<path d="M34.2 19C34.2 23.0313 32.5986 26.8975 29.748 29.748C26.8975 32.5986 23.0313 34.2 19 34.2C14.9687 34.2 11.1025 32.5986 8.25198 29.748C5.40142 26.8975 3.8 23.0313 3.8 19C3.8 14.9687 5.40142 11.1025 8.25198 8.25198C11.1025 5.40142 14.9687 3.8 19 3.8C20.444 3.8 21.85 4.009 23.18 4.389L26.163 1.406C23.959 0.494 21.546 0 19 0C16.5049 0 14.0342 0.49145 11.729 1.44629C9.42383 2.40113 7.32928 3.80066 5.56497 5.56497C2.00178 9.12816 0 13.9609 0 19C0 24.0391 2.00178 28.8718 5.56497 32.435C7.32928 34.1993 9.42383 35.5989 11.729 36.5537C14.0342 37.5086 16.5049 38 19 38C24.0391 38 28.8718 35.9982 32.435 32.435C35.9982 28.8718 38 24.0391 38 19M11.229 15.352L8.55 18.05L17.1 26.6L36.1 7.6L33.421 4.902L17.1 21.223L11.229 15.352Z" fill="#454545"/>
</svg>
