<svg width="62" height="58" viewBox="0 0 62 58" fill="none" xmlns="http://www.w3.org/2000/svg">
<path d="M33.077 55.4973L31 57.4056L26.505 53.2762C10.54 38.6667 0 29 0 17.206C0 7.53937 7.502 0 17.05 0C22.444 0 27.621 2.53398 31 6.50701C34.379 2.53398 39.556 0 44.95 0C54.498 0 62 7.53937 62 17.206C62 21.6796 60.45 25.8403 57.722 30.0636C55.8 29.1251 53.661 28.4995 51.429 28.2805C54.25 24.4013 55.8 20.8037 55.8 17.206C55.8 10.9493 51.15 6.25674 44.95 6.25674C40.176 6.25674 35.526 9.38511 33.883 13.6397H28.117C26.474 9.38511 21.824 6.25674 17.05 6.25674C10.85 6.25674 6.2 10.9493 6.2 17.206C6.2 26.247 15.934 35.1629 30.659 48.6462L31 48.959L31.124 48.8339C31.372 51.2114 32.054 53.4639 33.077 55.4973ZM56.172 35.8511L49.6 42.5146L43.028 35.8824L38.657 40.2934L45.229 46.9256L38.657 53.5577L43.028 58L49.6 51.3366L56.172 58L60.574 53.5577L53.971 46.9256L60.574 40.2934L56.172 35.8511Z" fill="#C4C4C4"/>
</svg>
