<svg width="190" height="190" viewBox="0 0 190 190" fill="none" xmlns="http://www.w3.org/2000/svg">
<path d="M171 95C171 115.156 162.993 134.487 148.74 148.74C134.487 162.993 115.156 171 95 171C74.8435 171 55.5126 162.993 41.2599 148.74C27.0071 134.487 19 115.156 19 95C19 74.8435 27.0071 55.5126 41.2599 41.2599C55.5126 27.0071 74.8435 19 95 19C102.22 19 109.25 20.045 115.9 21.945L130.815 7.03C119.795 2.47 107.73 0 95 0C82.5244 0 70.171 2.45725 58.6451 7.23144C47.1191 12.0056 36.6464 19.0033 27.8249 27.8249C10.0089 45.6408 0 69.8044 0 95C0 120.196 10.0089 144.359 27.8249 162.175C36.6464 170.997 47.1191 177.994 58.6451 182.769C70.171 187.543 82.5244 190 95 190C120.196 190 144.359 179.991 162.175 162.175C179.991 144.359 190 120.196 190 95M56.145 76.76L42.75 90.25L85.5 133L180.5 38L167.105 24.51L85.5 106.115L56.145 76.76Z" fill="#AD88EB"/>
</svg>
