<svg width="135" height="136" viewBox="0 0 135 136" fill="none" xmlns="http://www.w3.org/2000/svg">
<ellipse cx="61.5" cy="60.5" rx="61.5" ry="60.5" fill="#F4F2FB"/>
<path d="M66.2393 34H46.8479C45.5621 34 44.3291 34.532 43.4199 35.4788C42.5108 36.4257 42 37.71 42 39.0491V79.4418C42 80.7809 42.5108 82.0652 43.4199 83.012C44.3291 83.9589 45.5621 84.4909 46.8479 84.4909H63.8154C62.8216 83.8598 61.8762 83.0771 61.0521 82.2188C60.2522 81.3857 59.5735 80.4516 58.9675 79.4418H46.8479V39.0491H63.8154V51.6718H75.935V54.6508C77.656 55.0547 79.3043 55.7363 80.7829 56.7209V49.1473L66.2393 34ZM81.5343 76.6648C84.7581 71.338 83.2068 64.2945 78.1408 60.9621C73.0263 57.6045 66.2393 59.2454 63.0639 64.4965C59.8159 69.8233 61.3914 76.8415 66.4575 80.1992C69.9964 82.547 74.5049 82.547 78.0681 80.2497L85.6307 88L89 84.4909L81.5343 76.6648ZM72.2991 76.9173C70.692 76.9173 69.1506 76.2523 68.0142 75.0687C66.8777 73.8851 66.2393 72.2798 66.2393 70.6059C66.2393 68.932 66.8777 67.3267 68.0142 66.1431C69.1506 64.9595 70.692 64.2945 72.2991 64.2945C73.9063 64.2945 75.4476 64.9595 76.5841 66.1431C77.7205 67.3267 78.3589 68.932 78.3589 70.6059C78.3589 72.2798 77.7205 73.8851 76.5841 75.0687C75.4476 76.2523 73.9063 76.9173 72.2991 76.9173Z" fill="#454545"/>
<g filter="url(#filter0_d_432_351)">
<circle cx="108.5" cy="109.5" r="20.5" fill="white"/>
</g>
<path d="M102.177 119V116.9C107.227 112.375 110.177 108.9 110.177 106.05C110.177 104.2 109.202 103.05 107.427 103.05C106.052 103.05 104.977 103.925 104.027 104.975L102.002 102.975C103.702 101.15 105.377 100.175 107.902 100.175C111.377 100.175 113.727 102.4 113.727 105.85C113.727 109.225 110.927 112.825 107.552 116.125C108.477 116.025 109.702 115.9 110.577 115.9H114.577V119H102.177Z" fill="#454545"/>
<defs>
<filter id="filter0_d_432_351" x="82" y="83" width="53" height="53" filterUnits="userSpaceOnUse" color-interpolation-filters="sRGB">
<feFlood flood-opacity="0" result="BackgroundImageFix"/>
<feColorMatrix in="SourceAlpha" type="matrix" values="0 0 0 0 0 0 0 0 0 0 0 0 0 0 0 0 0 0 127 0" result="hardAlpha"/>
<feOffset/>
<feGaussianBlur stdDeviation="3"/>
<feComposite in2="hardAlpha" operator="out"/>
<feColorMatrix type="matrix" values="0 0 0 0 0 0 0 0 0 0 0 0 0 0 0 0 0 0 0.25 0"/>
<feBlend mode="normal" in2="BackgroundImageFix" result="effect1_dropShadow_432_351"/>
<feBlend mode="normal" in="SourceGraphic" in2="effect1_dropShadow_432_351" result="shape"/>
</filter>
</defs>
</svg>
